<?xml version="1.0" standalone="no"?>
<!DOCTYPE svg PUBLIC "-//W3C//DTD SVG 20010904//EN"
 "http://www.w3.org/TR/2001/REC-SVG-20010904/DTD/svg10.dtd">
<svg version="1.0" xmlns="http://www.w3.org/2000/svg"
 width="1767.000000pt" height="1746.000000pt" viewBox="0 0 1767.000000 1746.000000"
 preserveAspectRatio="xMidYMid meet">
<metadata>
Created by potrace 1.11, written by Peter Selinger 2001-2013
</metadata>
<g transform="translate(0.000000,1746.000000) scale(0.100000,-0.100000)"
fill="#000000" stroke="none">
<path d="M9425 13705 c-136 -30 -241 -90 -351 -199 -64 -64 -90 -99 -123 -166
-49 -101 -81 -220 -81 -302 0 -146 66 -326 164 -447 197 -245 541 -320 830
-182 179 86 301 231 366 436 17 55 22 95 23 185 0 101 -3 125 -28 195 -46 135
-82 193 -176 287 -72 72 -101 93 -180 131 -152 73 -300 94 -444 62z"/>
<path d="M8565 12122 c-59 -35 -116 -88 -152 -142 -27 -42 -26 -33 -77 -620
-15 -171 -20 -230 -71 -805 -14 -154 -30 -341 -37 -415 -10 -128 -13 -137 -44
-180 -18 -25 -42 -70 -54 -100 -12 -30 -25 -58 -29 -63 -4 -4 -288 263 -630
593 -342 330 -626 600 -632 600 -12 0 -189 -132 -189 -142 0 -3 280 -273 623
-599 342 -325 647 -617 679 -648 l56 -56 -79 -199 c-71 -176 -80 -206 -77
-254 l3 -54 155 176 c85 97 158 175 162 173 4 -1 131 -120 282 -265 251 -239
275 -264 267 -286 -18 -46 -80 -365 -105 -536 -48 -333 -88 -750 -111 -1150
-8 -146 -19 -310 -25 -365 -5 -55 -12 -131 -15 -170 -12 -145 -146 -1334 -160
-1415 -22 -135 -25 -183 -17 -220 l8 -35 22 42 c12 23 56 143 98 265 142 420
362 1063 454 1328 229 660 370 1106 461 1460 28 107 52 196 52 196 1 1 117
-108 257 -242 200 -191 259 -252 272 -286 9 -24 60 -158 112 -298 52 -140 131
-351 176 -469 129 -340 175 -474 481 -1381 55 -162 111 -341 124 -397 23 -98
63 -194 85 -208 13 -8 13 153 0 305 -6 63 -17 203 -25 310 -8 107 -30 402 -49
655 -45 582 -53 689 -51 693 2 2 2325 -2206 2664 -2532 35 -33 61 -53 58 -44
-4 12 -2 15 9 11 8 -3 13 -11 11 -17 -3 -7 53 -95 124 -197 l128 -184 227
-555 c125 -305 235 -572 245 -592 28 -55 119 -139 204 -187 102 -59 292 -122
371 -124 34 -1 60 -5 58 -8 -2 -4 -54 -38 -116 -76 -425 -263 -709 -377 -1068
-429 -232 -33 -506 -4 -765 82 -194 64 -291 106 -780 341 -575 276 -678 324
-835 386 -841 331 -1449 316 -2285 -58 -77 -35 -257 -119 -400 -187 -570 -274
-893 -402 -1165 -462 -185 -40 -274 -50 -470 -49 -367 1 -544 55 -1170 358
-528 256 -731 329 -1021 370 -474 67 -981 -6 -1658 -237 -225 -76 -721 -263
-783 -294 -98 -50 -138 -113 -138 -221 0 -41 5 -58 26 -83 59 -70 172 -96 280
-65 32 9 212 72 399 140 631 227 823 285 1110 334 426 73 707 51 1083 -85 159
-58 226 -88 577 -254 160 -76 337 -158 395 -183 357 -152 581 -194 969 -184
254 6 407 26 604 76 273 70 487 156 1007 404 510 243 667 310 902 385 445 142
767 155 1183 48 267 -69 471 -155 1040 -437 204 -102 431 -210 505 -241 74
-31 195 -82 268 -113 303 -128 528 -179 832 -192 318 -13 624 43 960 177 274
109 406 180 910 498 359 227 625 354 855 407 160 37 223 80 246 166 33 123
-81 259 -217 259 -101 0 -363 -80 -559 -170 -88 -41 -103 -40 -59 1 14 13 38
43 54 67 24 37 27 48 19 75 -5 17 -9 53 -9 79 0 56 8 49 -290 260 -113 80
-514 364 -892 631 -379 268 -692 487 -696 487 -18 0 -64 -59 -56 -72 4 -7
-102 93 -237 223 -134 130 -791 763 -1459 1408 -1161 1119 -1215 1173 -1222
1214 -4 23 -14 121 -23 217 -54 592 -148 1113 -280 1550 -110 363 -208 544
-334 618 -68 40 -141 37 -246 -10 l-80 -36 -42 -78 c-81 -150 -110 -257 -120
-434 -7 -121 6 -246 47 -482 27 -149 76 -360 96 -413 12 -31 -52 25 -194 168
l-124 124 26 159 c51 319 60 404 60 604 l1 195 -31 66 c-36 75 -62 103 -119
130 -99 46 -201 12 -319 -105 -88 -88 -158 -191 -208 -310 -21 -50 -42 -99
-46 -108 -6 -13 -55 30 -242 212 l-235 228 24 26 c29 31 133 85 376 196 493
225 674 334 960 579 296 253 625 639 869 1020 163 254 219 376 218 478 -1 195
-237 337 -415 249 -117 -57 -201 -162 -462 -576 -92 -146 -199 -310 -239 -365
-59 -82 -374 -468 -725 -889 -94 -112 -438 -417 -553 -490 l-32 -20 38 64 c67
117 204 395 261 531 110 260 210 593 270 894 36 179 45 442 21 565 -33 162
-83 238 -188 285 -90 40 -123 42 -183 7z"/>
<path d="M8548 4392 l-1138 -2 0 -198 0 -197 1763 -2 c969 -1 2054 2 2412 5
l649 7 29 55 c22 44 28 69 28 121 1 94 -31 153 -101 189 -33 16 -112 18 -1270
21 -679 2 -1747 3 -2372 1z"/>
</g>
</svg>
