<?xml version="1.0" standalone="no"?>
<!DOCTYPE svg PUBLIC "-//W3C//DTD SVG 20010904//EN"
 "http://www.w3.org/TR/2001/REC-SVG-20010904/DTD/svg10.dtd">
<svg version="1.0" xmlns="http://www.w3.org/2000/svg"
 width="909.000000pt" height="1280.000000pt" viewBox="0 0 909.000000 1280.000000"
 preserveAspectRatio="xMidYMid meet">
<g transform="translate(0.000000,1280.000000) scale(0.100000,-0.100000)"
fill="#000000" stroke="none">
<path d="M4305 11110 c-682 -61 -1277 -334 -1746 -800 -289 -288 -512 -645
-634 -1019 -10 -31 -24 -55 -34 -58 -9 -2 -49 -54 -88 -116 l-72 -112 21 -36
c11 -20 18 -43 16 -50 -2 -7 -41 -23 -86 -35 l-81 -22 -26 20 c-31 24 -53 18
-66 -21 -12 -35 -8 -33 -163 -65 -119 -24 -152 -40 -141 -68 15 -37 45 -40
175 -13 99 20 126 23 136 13 6 -7 21 -71 32 -143 12 -71 71 -418 132 -769 61
-352 107 -643 103 -647 -5 -4 -66 -19 -138 -33 -135 -27 -168 -43 -149 -73 23
-37 40 -39 151 -15 137 28 149 28 177 -5 l23 -27 33 33 c30 29 44 35 144 52
61 10 114 19 117 19 4 0 9 -13 12 -29 4 -20 33 -52 100 -109 51 -44 120 -111
152 -149 32 -37 85 -96 118 -129 l59 -61 -18 -168 c-11 -110 -22 -172 -31
-181 -11 -11 -48 -14 -160 -14 l-145 0 -40 -40 c-40 -40 -40 -41 -36 -104 3
-49 10 -74 32 -106 l28 -43 -36 -33 c-43 -40 -56 -70 -56 -132 0 -89 67 -162
148 -162 33 0 42 -4 42 -17 0 -10 -95 -209 -212 -442 -181 -361 -218 -427
-245 -443 -65 -39 -202 -257 -237 -377 -15 -51 -15 -56 2 -74 16 -19 9 -35
-213 -474 l-230 -455 -30 6 c-16 4 -95 9 -175 12 -123 6 -151 4 -177 -10 -42
-21 -57 -69 -51 -161 10 -160 120 -275 328 -345 84 -28 118 -27 286 9 237 50
440 125 579 213 75 47 191 146 249 212 125 142 388 354 620 498 790 493 1746
714 2561 592 518 -77 983 -285 1387 -621 48 -40 218 -172 377 -292 414 -315
574 -401 716 -388 159 15 223 88 198 226 -7 35 -7 61 -1 71 6 10 -30 750 -99
2070 -106 1998 -115 2227 -87 2237 5 2 33 17 63 34 l54 31 -6 335 c-4 221 -10
340 -17 348 -6 8 -20 58 -31 112 -89 437 -327 716 -652 764 -150 22 -133 9
-191 144 -375 875 -1176 1478 -2145 1615 -163 24 -480 34 -626 20z m2941
-3445 c29 -12 32 -17 38 -75 4 -35 13 -72 21 -84 16 -24 19 -71 140 -1956 47
-728 83 -1331 80 -1339 -3 -9 -9 -11 -15 -5 -5 5 -81 146 -170 314 -128 242
-160 311 -156 332 7 35 -31 148 -77 230 -48 86 -142 211 -166 219 -17 7 -168
280 -185 335 -6 19 -1 22 39 27 59 8 91 31 116 79 32 62 35 127 10 179 -11 24
-26 51 -32 60 -9 12 -6 24 15 56 39 59 45 134 14 193 -13 25 -38 55 -57 67
-32 22 -44 23 -218 23 -138 0 -185 3 -188 13 -3 6 -11 64 -18 127 l-14 114
108 113 c270 282 458 575 585 911 13 36 29 71 35 79 12 14 40 10 95 -12z"/>
</g>
</svg>
