<?xml version="1.0" standalone="no"?>
<!DOCTYPE svg PUBLIC "-//W3C//DTD SVG 20010904//EN"
 "http://www.w3.org/TR/2001/REC-SVG-20010904/DTD/svg10.dtd">
<svg version="1.0" xmlns="http://www.w3.org/2000/svg"
 width="1280.000000pt" height="971.000000pt" viewBox="0 0 1280.000000 971.000000"
 preserveAspectRatio="xMidYMid meet">
<g transform="translate(0.000000,971.000000) scale(0.100000,-0.100000)"
fill="#000000" stroke="none">
<path d="M6320 9690 c-25 -10 -74 -30 -109 -45 -55 -23 -80 -27 -187 -30 -147
-4 -186 -18 -261 -93 -66 -66 -94 -126 -137 -298 -19 -76 -40 -155 -46 -174
-6 -19 -15 -105 -19 -190 -7 -117 -14 -170 -31 -215 -49 -137 -51 -150 -47
-212 7 -89 49 -172 135 -265 111 -119 146 -201 187 -438 27 -159 33 -340 14
-431 -23 -108 -141 -185 -433 -281 -198 -65 -355 -105 -468 -119 -294 -35
-377 -76 -585 -293 -96 -99 -130 -146 -148 -206 -4 -14 -35 -83 -67 -155 -33
-71 -71 -163 -84 -203 -36 -112 -85 -196 -190 -327 -138 -171 -174 -231 -276
-453 -121 -265 -154 -327 -196 -363 -57 -51 -84 -42 -344 106 -640 367 -976
578 -1215 766 -43 34 -154 139 -248 233 -93 94 -242 230 -330 302 -179 146
-267 235 -331 335 -24 37 -51 69 -60 73 -8 3 -47 6 -85 6 -83 0 -93 -10 -107
-116 -7 -51 -23 -96 -57 -165 -82 -163 -97 -211 -97 -317 1 -79 -2 -96 -19
-113 -26 -26 -46 -24 -117 11 -75 38 -143 110 -241 256 -41 60 -77 113 -82
118 -10 11 -39 -58 -39 -93 0 -47 40 -133 114 -246 116 -177 120 -196 46 -227
-27 -11 -50 -24 -50 -28 0 -4 27 -32 59 -63 43 -41 68 -57 88 -58 15 0 104 0
197 1 165 1 169 1 207 -25 57 -37 117 -45 348 -45 315 -1 373 -14 499 -119 32
-27 175 -163 318 -302 527 -515 1252 -1176 1339 -1222 33 -18 57 -21 140 -20
143 1 210 21 325 97 52 35 142 87 199 117 122 61 204 133 320 279 41 52 133
163 203 247 226 269 247 303 338 533 53 133 71 168 93 180 35 20 49 10 94 -61
55 -90 184 -525 245 -829 32 -160 32 -405 1 -530 -12 -47 -47 -232 -77 -410
-56 -335 -69 -386 -114 -480 -31 -64 -50 -70 -142 -50 -83 18 -404 136 -500
184 -63 32 -143 58 -310 100 -124 32 -236 64 -250 71 -29 14 -227 72 -315 91
-119 26 -283 9 -392 -41 -89 -40 -224 -190 -280 -310 -26 -56 -28 -70 -31
-213 -3 -132 -1 -162 17 -220 67 -221 441 -614 891 -937 69 -49 203 -121 495
-266 423 -209 555 -281 555 -303 0 -7 -10 -22 -23 -34 -27 -26 -84 -38 -357
-77 -101 -15 -196 -33 -210 -40 -46 -25 -158 -123 -219 -194 -59 -69 -90 -120
-106 -171 -4 -14 -35 -85 -67 -158 -86 -191 -89 -266 -15 -369 61 -86 129
-115 309 -133 280 -28 309 -27 593 26 72 13 211 31 311 39 214 17 300 33 454
86 63 21 178 53 254 69 77 17 171 41 211 55 135 45 470 182 625 256 152 72
157 74 230 73 123 -2 304 -52 775 -214 99 -34 239 -77 310 -96 78 -21 166 -53
221 -80 79 -40 102 -46 172 -51 197 -14 337 61 378 204 14 48 16 83 9 226 -4
94 -9 176 -12 183 -3 7 -13 16 -24 19 -27 9 -49 57 -49 108 0 52 -16 78 -128
210 -83 97 -102 125 -102 152 0 23 60 45 123 45 73 0 118 17 256 99 238 141
455 314 691 550 230 230 454 498 527 630 20 36 48 80 61 96 36 43 62 104 62
147 0 72 -91 292 -169 406 -96 142 -289 252 -440 252 -40 0 -125 -21 -305 -75
-136 -41 -260 -81 -275 -88 -14 -8 -87 -46 -161 -84 -74 -39 -173 -83 -220
-98 -47 -15 -114 -45 -150 -66 -86 -50 -122 -58 -270 -61 l-124 -3 -22 40
c-12 22 -44 123 -69 225 -26 102 -69 259 -96 350 -85 285 -84 278 -84 690 0
397 -1 389 63 570 17 47 44 110 62 140 17 29 51 92 75 139 59 117 135 225 161
229 29 4 52 -27 64 -87 10 -56 40 -110 153 -281 178 -269 421 -522 764 -797
295 -236 514 -287 666 -153 21 18 79 50 130 72 188 81 469 297 1177 903 516
442 623 526 760 595 36 18 233 89 439 157 205 68 389 132 410 142 52 27 321
220 321 230 0 26 -15 41 -46 47 -47 9 -83 -2 -95 -30 -6 -13 -23 -29 -37 -36
-23 -10 -29 -9 -44 10 -16 20 -18 47 -18 264 0 132 -4 247 -9 254 -20 32 -46
6 -85 -83 -35 -81 -39 -102 -45 -202 -6 -91 -11 -118 -27 -140 -28 -37 -138
-97 -167 -89 -33 8 -54 52 -60 131 -9 91 -44 164 -105 213 -77 62 -106 96
-146 171 -46 87 -79 111 -153 111 -43 0 -55 -4 -71 -25 -11 -13 -22 -41 -25
-62 -8 -51 -213 -418 -285 -511 -89 -115 -113 -157 -119 -203 -9 -67 -25 -90
-130 -186 -259 -235 -338 -286 -983 -635 -479 -260 -493 -266 -635 -275 -109
-7 -130 2 -200 79 -77 85 -140 187 -257 412 -114 219 -158 289 -259 416 -68
85 -130 203 -215 405 -46 111 -70 153 -114 205 -31 36 -77 93 -103 126 -65 86
-160 169 -232 204 -82 40 -154 57 -331 75 -237 24 -271 36 -579 203 -209 114
-273 162 -309 233 -25 50 -26 60 -26 210 0 245 33 447 93 564 11 22 41 72 67
110 62 92 80 147 80 243 0 243 -114 778 -196 917 -41 70 -104 129 -216 201
-57 37 -120 82 -142 101 -45 41 -135 83 -174 82 -15 0 -47 -9 -72 -19z m5523
-3294 c55 -117 65 -167 47 -231 -23 -82 -32 -80 -126 18 -46 48 -84 92 -84 97
0 5 18 57 41 115 29 76 45 105 57 105 12 0 32 -33 65 -104z m-10960 -27 c33
-17 77 -61 94 -94 19 -36 19 -139 1 -210 -12 -45 -16 -50 -43 -53 -63 -5 -124
62 -138 151 -11 69 26 217 53 217 6 0 21 -5 33 -11z"/>
</g>
</svg>
